<svg width="1000" height="1000" viewBox="0 0 1000 1000" fill="none" xmlns="http://www.w3.org/2000/svg">
<circle cx="500" cy="500" r="500" fill="#0D1B2A"/>
<path d="M309.766 364.844V700H196.875V277.344H302.734L309.766 364.844ZM294.141 473.828H262.891C262.891 444.401 266.406 417.318 273.438 392.578C280.729 367.578 291.276 345.964 305.078 327.734C319.141 309.245 336.458 294.922 357.031 284.766C377.604 274.609 401.432 269.531 428.516 269.531C447.266 269.531 464.453 272.396 480.078 278.125C495.703 283.594 509.115 292.318 520.312 304.297C531.771 316.016 540.625 331.38 546.875 350.391C553.125 369.141 556.25 391.667 556.25 417.969V700H443.75V430.469C443.75 411.198 441.146 396.354 435.938 385.938C430.729 375.521 423.307 368.229 413.672 364.062C404.297 359.896 392.969 357.812 379.688 357.812C365.104 357.812 352.344 360.807 341.406 366.797C330.729 372.786 321.875 381.12 314.844 391.797C307.812 402.214 302.604 414.453 299.219 428.516C295.833 442.578 294.141 457.682 294.141 473.828ZM545.703 460.938L505.469 466.016C505.469 438.411 508.854 412.76 515.625 389.062C522.656 365.365 532.943 344.531 546.484 326.562C560.286 308.594 577.344 294.661 597.656 284.766C617.969 274.609 641.406 269.531 667.969 269.531C688.281 269.531 706.771 272.526 723.438 278.516C740.104 284.245 754.297 293.49 766.016 306.25C777.995 318.75 787.109 335.156 793.359 355.469C799.87 375.781 803.125 400.651 803.125 430.078V700H690.234V430.078C690.234 410.547 687.63 395.703 682.422 385.547C677.474 375.13 670.182 367.969 660.547 364.062C651.172 359.896 639.974 357.812 626.953 357.812C613.411 357.812 601.562 360.547 591.406 366.016C581.25 371.224 572.786 378.516 566.016 387.891C559.245 397.266 554.167 408.203 550.781 420.703C547.396 432.943 545.703 446.354 545.703 460.938Z" fill="#E0E1DD"/>
</svg>
